<svg preserveAspectRatio="xMidYMid meet" data-bbox="1 1 584.999 478.477" xmlns="http://www.w3.org/2000/svg" viewBox="0 0 587 481" height="481" width="587" data-type="ugc" role="presentation" aria-hidden="true" aria-label="">
    <g>
        <path fill="#AFA1FF" d="M570.863 420.911q-.015-.645.03-1.41c.63-11.3 1.55-16.17 2.86-18.21.64-.99 1.37-1.31 2.2-1.37 2.55-.17 4 2.29 3.25 10.03-.38 3.96-1.15 8.55-1.99 13.22-1.3 1.12-6.22 4.86-6.35-2.26"></path>
        <path fill="#AFA1FF" d="M573.753 401.29c-1.45-6.38-6.17-2.089-6.73-.75-1.23-6.16-5.85-3.639-6.56-2.259-.23-7.93-1.04-18.86-2.74-29.98-.57-3.711-1.09-7.47-2.01-11.08-12.88-50.24-40.64-98.58-54.22-120.47 1.7-8.02 2.57-16.28 2.53-24.69-.04-8.71-1.22-16.75-2.97-24.1l.28-.06c8.43 12.31 20.67 32.28 29.71 47.82 31.67 54.48 46.34 92.73 49.87 117.08.63 4.31 1.64 8.429 2.26 12.459 4.94 32.09 1.94 55.981 1.76 57.101-3.44 20.759-3.93 32.33-9.21 30.13-3.92-1.63-.92-15.82 1.49-29.32.84-4.67 1.61-9.26 1.99-13.22.75-7.741-.7-10.2-3.25-10.03-.83.059-1.56.379-2.2 1.369"></path>
        <path fill="#AFA1FF" d="M563.793 418.82c-1.04-4.93 1.39-13.87 3.23-18.28.56-1.34 5.28-5.63 6.73.75-1.31 2.04-2.23 6.91-2.86 18.21q-.045.765-.03 1.41c-.61.63-3.53 3.32-6.05.29-.49-.6-.83-1.41-1.02-2.38"></path>
        <path fill="#AFA1FF" d="M560.463 398.28c.71-1.38 5.33-3.9 6.56 2.26-1.84 4.41-4.27 13.35-3.23 18.28-.49.62-2.85 3.3-4.96.23-2.53-3.67-.18-15.37 1.56-20.62.02-.05.04-.1.07-.15"></path>
        <path fill="#47270B" d="M514.993 115.121c2.77 14.24-18.25 15.17-21.03 15.23a1.34 1.34 0 0 0-.99-1.39c-11.63-3.17-84.83-22.5-173.91-31.39-.49-.05-.93.24-1.09.68-23.66-6.67-14.7-35.61 4.34-27.99 0 0-.25-30.69 23.02-30.69 15.34 0 21.93 19.24 21.93 19.24s12.86-22.12 33.14-8.24c0 0 8.93-16.72 25.15-4.24 0 0 7.78 5.46 9.18 13.89 0 0 10.39-17.34 22.49-2.81 7.03 8.43 5.63 15.46 5.63 15.46s23.11-18.24 39.69 9.45c5.29 8.82-4.55 24.29-4.55 24.29s14.81-2.75 17 8.51"></path>
        <path fill="#AFA1FF" d="M353.633 327.62c-6.87-2.08-18.01-5.71-23.87-8.96-5.87-3.25-11.45-6.92-16.67-10.98-8.08-6.28-15.31-13.51-21.43-21.58h-.01c-13.61-17.92-21.79-39.98-21.77-65.03.02-21.36 6.37-42.47 17.14-61.01 4.29-7.37 9.27-14.34 14.83-20.75l.76-.05c.22 4.41 1.91 9.53 4.36 15.4 5.32 12.77-19.02 28.61-15.7 33.91 2.1 3.36 9.91 4.76 15.34 5.34 3.33.35 6.27-1.35 8.55-3.8 14.59-15.69 16.1-30.34 14.53-44.05-1.25-10.89 12.5-13.36 14.07-16.44 39.06 8.8 108.3 23.45 144.56 25.34.29.01.56-.08.77-.26 3.64 8.71 8.75 19.84 11.96 33.26 1.75 7.35 2.93 15.39 2.97 24.1.04 8.41-.83 16.67-2.53 24.69-9.97 47.19-48.37 85.76-95.84 93.93-6.13 1.06-12.41 1.6-18.8 1.6-9.39 0-18.53-1.02-27.3-2.93 0 0-2.4-.67-5.92-1.73m119.25-136.56c5.33-24.98-61.11-27.3-79.17-30.73s-33.19-3.63-35.28 7.35c-1.84 9.69 12.06 16.35 30.12 19.78 18.06 3.44 81.29 17.81 84.33 3.6"></path>
        <path fill="#E7A6FF" d="M489.093 154.701c-.21.18-.48.27-.77.26-36.26-1.89-105.5-16.54-144.56-25.34-14.18-3.21-24.39-5.63-27.59-6.4a1.12 1.12 0 0 1-.83-1.33c1.98-9.54 2.45-19.94 2.56-23.31 0-.12.03-.23.07-.33.16-.44.6-.73 1.09-.68 89.08 8.89 162.28 28.22 173.91 31.39.64.18 1.04.77.99 1.39 0 .14-.04.29-.1.43-2.39 5.55-3.92 19.16-4.33 23.13-.03.32-.2.61-.44.79"></path>
        <path fill="#E0D5BE" d="M393.713 160.331c18.06 3.43 84.5 5.75 79.17 30.73-3.04 14.21-66.27-.16-84.33-3.6-18.06-3.43-31.96-10.09-30.12-19.78 2.09-10.98 17.22-10.78 35.28-7.35m28.85 18.72c1.11-6.65-8.91-8.32-21.28-10.39s-22.4-3.74-23.42 2.35c-.83 4.99 9.01 7.78 21.38 9.84 12.37 2.07 22.58 2.64 23.32-1.8"></path>
        <path fill="#A8EBF2" d="M450.703 397.741s25.91 2.429 10.78 21.609a200 200 0 0 0-6.26 8.421c-14.2-12.63-5.57-29.55-5.26-30.13.25.03.5.07.74.1"></path>
        <path fill="#E0D5BE" d="M353.673 400.18c2-7.36 5.64-15.59 5.64-15.59 30.35 4.44 64.07 9.28 90.65 13.05-.31.58-8.94 17.5 5.26 30.13-10.19 14.48-18.55 29.85-26.23 40.03l-21-16.48-.14-.26c15-7.59 23.22-23.7 23.15-31.71-21.32-3.05-50.85-7.04-78.59-10.81-.18-2.12.38-5.16 1.26-8.36"></path>
        <path fill="#A8EBF2" d="m407.993 451.321 21 16.48c-5.58 7.4-10.8 12.06-16.1 11.65h-11.51c-4.91 0-13.43-2.84-15.54-7.62-2.85-6.46-4.3-17 2.75-16.67 7.29.34 13.74-1.3 19.26-4.1z"></path>
        <path fill="#282119" d="M401.283 168.661c12.37 2.07 22.39 3.74 21.28 10.39-.74 4.44-10.95 3.87-23.32 1.8-12.37-2.06-22.21-4.85-21.38-9.84 1.02-6.09 11.05-4.42 23.42-2.35"></path>
        <path fill="#47270B" d="M302.593 138.69c-.15-6.84 3.43-11.95 13.58-15.47 3.2.77 13.41 3.19 27.59 6.4-1.57 3.08-15.32 5.55-14.07 16.44 1.57 13.71.06 28.36-14.53 44.05-2.28 2.45-5.22 4.15-8.55 3.8-5.43-.58-13.24-1.98-15.34-5.34-3.32-5.3 21.02-21.14 15.7-33.91-2.45-5.87-4.14-10.99-4.36-15.4-.01-.19-.02-.38-.02-.57"></path>
        <path fill="#AFA1FF" d="M353.673 400.18c-.88 3.2-1.44 6.24-1.26 8.36-5.48-.75-10.9-1.49-16.17-2.21-31.89-4.37-58.36-8.11-62.2-9.21-5.36-1.53-9.12-6.06-9.57-11.55-.75-8.91 6.67-13.5 12.64-17.19 4.33-2.68 10.37-6.1 18.46-10.45 13.05-7.01 35.25-18.96 58.06-30.31 3.52 1.06 5.92 1.73 5.92 1.73 8.77 1.91 17.91 2.92 27.3 2.93 6.39 0 12.67-.54 18.8-1.6l.08.51c-35.8 17.38-70.19 34.55-92.86 46.5q2.58.39 5.31.81c12.06 1.81 26.18 3.9 41.13 6.09 0 0-3.64 8.23-5.64 15.59"></path>
        <path fill="#AFA1FF" d="M173.383 374.61c-2.87 1.16-5.46 2.46-7.06 3.8l-16.84-41.29c-1.73-4.22-1.21-9.06 1.38-12.92 3.54-5.28 7.21-10.74 92.13-28.45 14.63-3.06 32.86-6.66 48.66-9.65h.01c6.12 8.07 13.35 15.3 21.43 21.58l-.59.77c-14.44 2.59-35.83 6.43-61.56 11.76-43.11 8.94-63.5 14.43-73.07 17.51-.15.05-.3.09-.44.14.38.94.79 1.92 1.2 2.93 0 .01.01.02.01.03.32.96.73 1.99 1.25 3.09 2.92 7.24 6.41 16.04 10.08 25.38l-.74.29s-8.78 2.13-15.85 5.03"></path>
        <path fill="#AFA1FF" d="M30.503 11.77c-13.3 3.33-27.25 7.31-29.15 3.51-2.56-5.12 8.95-6.4 29.43-11.26 1.24-.29 31.03-6.12 69.67-.77 51.67 7.16 94.74 31.15 124.53 69.38 17.61 22.58 45.28 52.23 77.61 66.06 0 .19.01.38.02.57l-.76.05a136.6 136.6 0 0 0-14.83 20.75l-.51-.29c-22.37-11.26-52.17-33.53-81.7-71.42-25.82-33.13-61.84-53.2-107.04-59.65-14.74-2.11-30.7-2.34-41.26-1.93 1.33-.85 3.47-5.58-2.73-6.38 1.3-.65 5.26-5.65-1.21-6.66.94-.7 1.21-1.45 1.21-2.29 0-2.56-2.56-3.84-10.23-2.56-3.92.65-8.45 1.73-13.05 2.89"></path>
        <path fill="#A8EBF2" d="M222.963 459.15c1.13 9.35-4.04 11.62-10.24 11.95l-8.85.7c-2.34-18.72 12.89-24.55 15.7-25.46 1.04 3.46 2.79 9.44 3.39 12.81"></path>
        <path fill="#E0D5BE" d="M173.383 374.611c7.07-2.9 15.85-5.03 15.85-5.03l.74-.29c13.08 33.37 28.47 73.64 28.76 74.36 0 0 .34 1.07.84 2.69-2.81.91-18.04 6.74-15.7 25.46l-47.14 3.71-.06-.74-4.15-26.61-.02-.29.99-.06 39.75 3.67c1.35.2 2.39-1.15 1.86-2.41l-3.22-7.98-25.56-62.68c1.6-1.34 4.19-2.64 7.06-3.8"></path>
        <path fill="#A8EBF2" d="m156.673 474.77.06.74-15.59 1.23c-2.84.33-7.35-3.15-8.07-8.82a45 45 0 0 1-.11-3c0-14.83 8.7-16.43 19.54-17.05l.02.29z"></path>
        <path fill="#AFA1FF" d="M56.513 26.77c-.06.04-.12.07-.17.09-5.12 2.1-16.63 5.24-20.46 2.97-3.19-1.88-.73-4.4-.13-4.95 4.99.68 13.75-2.35 18.03-4.49 6.2.8 4.06 5.53 2.73 6.38"></path>
        <path fill="#AFA1FF" d="M35.753 24.88c-.98-.13-1.8-.41-2.43-.86-3.22-2.32-.69-5.44-.12-6.07.43-.02.89-.06 1.4-.12 11.23-1.4 16.03-2.65 17.97-4.1 6.47 1.01 2.51 6.01 1.21 6.66-4.28 2.14-13.04 5.17-18.03 4.49"></path>
        <path fill="#AFA1FF" d="M33.203 17.95c-7.14.37-3.71-4.82-2.7-6.18 4.6-1.16 9.13-2.24 13.05-2.89 7.67-1.28 10.23 0 10.23 2.56 0 .84-.27 1.59-1.21 2.29-1.94 1.45-6.74 2.7-17.97 4.1-.51.06-.97.1-1.4.12"></path>
        <path stroke-miterlimit="10" stroke-width="2" stroke="#47270B" d="M472.883 191.061c-3.04 14.21-66.27-.16-84.33-3.6-18.06-3.43-31.96-10.09-30.12-19.78 2.09-10.98 17.22-10.78 35.28-7.35s84.5 5.75 79.17 30.73Z" fill="none"></path>
        <path stroke-miterlimit="10" stroke-width="2" stroke="#47270B" d="M291.663 286.1c6.12 8.07 13.35 15.3 21.43 21.58 5.22 4.06 10.8 7.731 16.67 10.981 5.86 3.25 17 6.879 23.87 8.959 3.52 1.06 5.92 1.73 5.92 1.73 8.77 1.91 17.91 2.921 27.3 2.931 6.39 0 12.67-.541 18.8-1.601 47.47-8.17 85.87-46.739 95.84-93.929 1.7-8.02 2.57-16.281 2.53-24.691-.04-8.71-1.22-16.75-2.97-24.1-3.21-13.42-8.32-24.55-11.96-33.26q-.27-.675-.54-1.32" fill="none"></path>
        <path stroke-miterlimit="10" stroke-width="2" stroke="#47270B" d="M301.853 139.311a136.6 136.6 0 0 0-14.83 20.75c-10.77 18.54-17.12 39.65-17.14 61.01-.02 25.05 8.16 47.11 21.77 65.03" fill="none"></path>
        <path stroke-miterlimit="10" stroke-width="2" stroke="#47270B" d="M422.563 179.051c-.74 4.44-10.95 3.87-23.32 1.8-12.37-2.06-22.21-4.85-21.38-9.84 1.02-6.09 11.05-4.42 23.42-2.35s22.39 3.74 21.28 10.39Z" fill="none"></path>
        <path stroke-miterlimit="10" stroke-width="2" stroke="#47270B" d="M466.553 234.661c1.86 14.06-49.46 52.07-129.67-20.14" fill="none"></path>
        <path stroke-miterlimit="10" stroke-width="2" stroke="#47270B" d="M343.763 129.62c-1.57 3.08-15.32 5.55-14.07 16.44 1.57 13.71.06 28.36-14.53 44.05-2.28 2.45-5.22 4.15-8.55 3.8-5.43-.58-13.24-1.98-15.34-5.34-3.32-5.3 21.02-21.14 15.7-33.91-2.45-5.87-4.14-10.99-4.36-15.4-.01-.19-.02-.38-.02-.57-.15-6.84 3.43-11.95 13.58-15.47" fill="none"></path>
        <path stroke-miterlimit="10" stroke-width="2" stroke="#47270B" d="M316.173 123.221c3.2.77 13.41 3.19 27.59 6.4 39.06 8.8 108.3 23.45 144.56 25.34.29.01.56-.08.77-.26.24-.18.41-.47.44-.79.41-3.97 1.94-17.58 4.33-23.13.06-.14.1-.29.1-.43a1.34 1.34 0 0 0-.99-1.39c-11.63-3.17-84.83-22.5-173.91-31.39-.49-.05-.93.24-1.09.68-.04.1-.07.21-.07.33-.11 3.37-.58 13.77-2.56 23.31-.13.6.24 1.19.83 1.33Z" fill="none"></path>
        <path stroke-linejoin="bevel" stroke-width="2" stroke="#47270B" d="M318.483 98.39c-.17-.05-.34-.09-.51-.14-23.66-6.67-14.7-35.61 4.34-27.99 0 0-.25-30.69 23.02-30.69 15.34 0 21.93 19.24 21.93 19.24s12.86-22.12 33.14-8.24c0 0 8.93-16.72 25.15-4.24 0 0 7.78 5.46 9.18 13.89 0 0 10.39-17.34 22.49-2.81 7.03 8.43 5.63 15.46 5.63 15.46s23.11-18.24 39.69 9.45c5.29 8.82-4.55 24.291-4.55 24.291s14.81-2.75 17 8.51c2.77 14.24-18.25 15.17-21.03 15.23-.2.01-.3.01-.3.01" fill="none"></path>
        <path stroke-linejoin="bevel" stroke-width="2" stroke="#47270B" d="M286.513 159.771c-22.37-11.26-52.17-33.53-81.7-71.42-25.82-33.13-61.84-53.2-107.04-59.65-14.74-2.11-30.7-2.34-41.26-1.93h-.17" fill="none"></path>
        <path stroke-linejoin="bevel" stroke-width="2" stroke="#47270B" d="M178.643 340.82c.41 1 .82 2.02 1.25 3.09 2.92 7.24 6.41 16.04 10.08 25.38 13.08 33.37 28.47 73.64 28.76 74.36 0 0 .34 1.07.84 2.69 1.04 3.46 2.79 9.44 3.39 12.81" fill="none"></path>
        <path stroke-linejoin="bevel" stroke-width="2" stroke="#47270B" d="M312.503 308.45c-14.44 2.59-35.83 6.43-61.56 11.76-43.11 8.94-63.5 14.43-73.07 17.51-.15.05-.3.09-.44.14.38.94.79 1.92 1.2 2.93" fill="none"></path>
        <path stroke-linejoin="bevel" stroke-width="2" stroke="#47270B" d="M30.763 11.44s-.1.12-.26.33m0 0c-1.01 1.36-4.44 6.55 2.7 6.18.43-.02.89-.06 1.4-.12 11.23-1.4 16.03-2.65 17.97-4.1.94-.7 1.21-1.45 1.21-2.29 0-2.56-2.56-3.84-10.23-2.56-3.92.65-8.45 1.73-13.05 2.89Zm0 0c-13.3 3.33-27.25 7.31-29.15 3.51-2.56-5.12 8.95-6.4 29.43-11.26 1.24-.29 31.03-6.12 69.67-.77 51.67 7.16 94.74 31.15 124.53 69.38 17.61 22.58 45.28 52.23 77.61 66.06.39.17.79.34 1.18.5" fill="none"></path>
        <path stroke-linejoin="bevel" stroke-width="2" stroke="#47270B" d="m33.323 17.83-.12.12c-.57.63-3.1 3.75.12 6.07.63.45 1.45.73 2.43.86 4.99.68 13.75-2.35 18.03-4.49 1.3-.65 5.26-5.65-1.21-6.66" fill="none"></path>
        <path stroke-linejoin="bevel" stroke-width="2" stroke="#47270B" d="M35.883 24.77s-.05.04-.13.11c-.6.55-3.06 3.07.13 4.95 3.83 2.27 15.34-.87 20.46-2.97.05-.02.11-.05.17-.09 1.33-.85 3.47-5.58-2.73-6.38" fill="none"></path>
        <path stroke-linejoin="bevel" stroke-width="2" stroke="#47270B" d="M501.333 236.5c.05.08.1.16.16.25 13.58 21.89 41.34 70.23 54.22 120.47.92 3.61 1.44 7.37 2.01 11.08 1.7 11.12 2.51 22.05 2.74 29.98v.15" fill="none"></path>
        <path stroke-linejoin="bevel" stroke-width="2" stroke="#47270B" d="M501.333 187.901c8.43 12.31 20.67 32.28 29.71 47.82 31.67 54.48 46.34 92.73 49.87 117.08.63 4.31 1.64 8.429 2.26 12.459 4.94 32.09 1.94 55.981 1.76 57.101-3.44 20.76-3.93 32.33-9.21 30.13-3.92-1.63-.92-15.82 1.49-29.32m0 0c.84-4.67 1.61-9.26 1.99-13.22.75-7.74-.7-10.2-3.25-10.03-.83.06-1.56.379-2.2 1.369-1.31 2.04-2.23 6.911-2.86 18.211q-.045.765-.03 1.41c.13 7.12 5.05 3.38 6.35 2.26Zm0 0c.2-.17.32-.28.32-.28" fill="none"></path>
        <path stroke-linejoin="bevel" stroke-width="2" stroke="#47270B" d="M570.983 420.78s-.04.05-.12.13c-.61.63-3.53 3.32-6.05.29-.49-.6-.83-1.41-1.02-2.38-1.04-4.93 1.39-13.87 3.23-18.28.56-1.34 5.28-5.63 6.73.75" fill="none"></path>
        <path stroke-linejoin="bevel" stroke-width="2" stroke="#47270B" d="m563.883 418.7-.09.12c-.49.62-2.85 3.3-4.96.23-2.53-3.67-.18-15.37 1.56-20.62.02-.05.04-.1.07-.15.71-1.38 5.33-3.9 6.56 2.26" fill="none"></path>
        <path stroke-miterlimit="10" stroke-width="2" stroke="#47270B" d="M204.673 68.98s5.14 8.78 10.24 13.98" fill="none"></path>
        <path stroke-miterlimit="10" stroke-width="2" stroke="#47270B" d="M455.423 427.95c-.07-.06-.14-.12-.2-.18-14.2-12.63-5.57-29.55-5.26-30.13.01-.01.01-.02.01-.02" fill="none"></path>
        <path stroke-miterlimit="10" stroke-width="2" stroke="#47270B" d="m407.993 451.32 21 16.48 1.02.8" fill="none"></path>
        <path stroke-linejoin="bevel" stroke-width="2" stroke="#47270B" d="M405.733 331.191c-35.8 17.38-70.19 34.55-92.86 46.5q2.58.39 5.31.81c12.06 1.81 26.18 3.9 41.13 6.09 30.35 4.44 64.07 9.28 90.65 13.05.25.03.5.07.74.1 0 0 25.91 2.43 10.78 21.61-2.16 2.74-4.24 5.56-6.26 8.42-10.19 14.48-18.55 29.85-26.23 40.03-5.58 7.4-10.8 12.06-16.1 11.65h-11.51c-4.91 0-13.43-2.84-15.54-7.62-2.85-6.46-4.3-17 2.75-16.67 7.29.34 13.74-1.3 19.26-4.1 15-7.59 23.22-23.7 23.15-31.71-21.32-3.05-50.85-7.04-78.59-10.81-5.48-.75-10.9-1.49-16.17-2.21-31.89-4.37-58.36-8.11-62.2-9.21-5.36-1.53-9.12-6.06-9.57-11.55-.75-8.91 6.67-13.5 12.64-17.19 4.33-2.68 10.37-6.1 18.46-10.45 13.05-7.01 35.25-18.96 58.06-30.31.22-.11.43-.22.65-.33" fill="none"></path>
        <path stroke-linejoin="bevel" stroke-width="2" stroke="#47270B" d="M297.533 374.6c6.88 2.56 20.65 3.9 20.65 3.9" fill="none"></path>
        <path stroke-linejoin="bevel" stroke-width="2" stroke="#47270B" d="M359.313 384.59s-3.64 8.23-5.64 15.59c-.88 3.2-1.44 6.24-1.26 8.36" fill="none"></path>
        <path stroke-linejoin="bevel" stroke-width="2" stroke="#47270B" d="m356.823 392 23.03 4.34" fill="none"></path>
        <path stroke-linejoin="bevel" stroke-width="2" stroke="#47270B" d="m353.283 400.11.39.07 21.07 3.83" fill="none"></path>
        <path stroke-miterlimit="10" stroke-width="2" stroke="#47270B" d="M222.963 459.15c1.13 9.35-4.04 11.62-10.24 11.95l-8.85.7-47.14 3.71-15.59 1.23c-2.84.33-7.35-3.15-8.07-8.82a45 45 0 0 1-.11-3c0-14.83 8.7-16.43 19.54-17.05l.99-.06 39.75 3.67c1.35.2 2.39-1.15 1.86-2.41l-3.22-7.98-25.56-62.68-16.84-41.29c-1.73-4.22-1.21-9.06 1.38-12.92 3.54-5.28 7.21-10.74 92.13-28.45 14.63-3.06 32.86-6.66 48.66-9.65h.01" fill="none"></path>
        <path stroke-miterlimit="10" stroke-width="2" stroke="#47270B" d="m156.673 474.771-4.15-26.61" fill="none"></path>
        <path stroke-miterlimit="10" stroke-width="2" stroke="#47270B" d="M220.013 446.21s-.16.04-.44.13c-2.81.91-18.04 6.74-15.7 25.46.03.25.06.51.1.77" fill="none"></path>
        <path stroke-linejoin="bevel" stroke-width="2" stroke="#47270B" d="M189.233 369.58s-8.78 2.13-15.85 5.03c-2.87 1.16-5.46 2.46-7.06 3.8-.1.08-.2.16-.3.25" fill="none"></path>
        <path stroke-linejoin="bevel" stroke-width="2" stroke="#47270B" d="m181.843 372.11 8 20.92" fill="none"></path>
        <path stroke-linejoin="bevel" stroke-width="2" stroke="#47270B" d="m173.243 374.24.14.37 7.26 19.03" fill="none"></path>
        <path stroke-linejoin="bevel" stroke-width="2" stroke="#47270B" d="M185.493 327.291s-9.12.91-7.62 10.43c.14.93.39 1.96.76 3.07 0 .01.01.02.01.03.32.96.73 1.99 1.25 3.09" fill="none"></path>
        <path stroke-linejoin="bevel" stroke-width="2" stroke="#47270B" d="M546.353 291.61s4.47 10.49 5.3 16.05" fill="none"></path>
        <path fill="#47270B" d="m512.003 253.96-11-17c3.86-15.57 4.19-31.84 0-49l10 15c2.93 16.4 3.97 34.06 1 51"></path>
        <path fill="#47270B" d="m315.003 308.96-18 3-16.81-23.87 11.81-2.13c3.54 8.33 12.01 15.87 23 23"></path>
        <path stroke-miterlimit="10" stroke-width="2" stroke="#47270B" fill="#AEF9F2" d="m327.003 97.96 35 36 14 3-34-37z"></path>
        <path stroke-miterlimit="10" stroke-width="2" stroke="#47270B" fill="#AEF9F2" d="m368.003 103.96 33 37 14 3-32-38z"></path>
        <path stroke-miterlimit="10" stroke-width="2" stroke="#47270B" fill="#AEF9F2" d="m418.003 111.96 35 39 14 2-34-39z"></path>
        <path stroke-miterlimit="10" stroke-width="2" stroke="#47270B" fill="#AEF9F2" d="m456.003 118.96 33 35 2-12-19-19z"></path>
    </g>
</svg>