<svg preserveAspectRatio="xMidYMid meet" data-bbox="0.042 0.017 95.832 129.377" xmlns="http://www.w3.org/2000/svg" viewBox="0.042 0.017 95.832 129.377" height="130" width="96" data-type="color" role="presentation" aria-hidden="true" aria-label="">
    <g>
        <path fill="#00FFFF" d="M95.84 65.6c-43 2.23-45.09 5.8-47.87 63.76C44.95 71.6 43.11 68.09.1 65.6 42.8 61.77 44.94 57.81 47.96.05c2.78 57.97 5.2 61.46 47.87 65.54z" data-color="1"></path>
        <path fill="#282119" d="M8.106 65.47c6.978.528 12.683 1.211 17.353 2.39 6.36 1.605 10.871 4.144 14.095 8.507 3.204 4.335 5.08 10.396 6.353 18.917.895 5.985 1.498 13.228 2.039 22.006.511-8.827 1.098-16.111 1.987-22.126 1.263-8.551 3.148-14.631 6.368-18.97 3.24-4.368 7.774-6.896 14.154-8.473 4.686-1.158 10.405-1.812 17.392-2.299-6.932-.783-12.618-1.672-17.287-3.018-6.36-1.832-10.895-4.526-14.15-8.993-3.235-4.442-5.151-10.566-6.44-19.142-.91-6.05-1.513-13.361-2.033-22.225-.55 8.828-1.168 16.125-2.082 22.174-1.297 8.585-3.201 14.739-6.417 19.21-3.235 4.497-7.744 7.221-14.09 9.06-4.651 1.349-10.32 2.23-17.242 2.983M44.57 34.025c1.287-8.517 1.986-19.562 2.74-34.008l1.3.002c.695 14.498 1.366 25.553 2.645 34.058 1.28 8.51 3.157 14.383 6.207 18.57 3.032 4.162 7.277 6.728 13.458 8.51 6.204 1.787 14.278 2.772 24.954 3.793v1.3c-10.758.558-18.89 1.198-25.107 2.734-6.193 1.531-10.418 3.936-13.422 7.985-3.026 4.077-4.872 9.896-6.126 18.386-1.254 8.483-1.904 19.54-2.6 34.037l-1.298.002c-.755-14.446-1.435-25.463-2.7-33.917-1.264-8.46-3.102-14.263-6.112-18.336-2.99-4.046-7.193-6.462-13.368-8.02-6.199-1.564-14.318-2.249-25.079-2.871l-.02-1.297c10.682-.958 18.761-1.92 24.945-3.712 6.16-1.786 10.38-4.38 13.395-8.571 3.034-4.218 4.9-10.123 6.188-18.645" clip-rule="evenodd" fill-rule="evenodd" data-color="2"></path>
    </g>
</svg>