<svg preserveAspectRatio="xMidYMid meet" data-bbox="0.002 -0.003 57.999 78.249" xmlns="http://www.w3.org/2000/svg" viewBox="0.002 -0.003 57.999 78.249" height="79" width="58" data-type="color" role="presentation" aria-hidden="true" aria-label="">
    <g>
        <path fill="#FFB83C" d="M57.945 39.663c-25.998 1.348-27.262 3.506-28.942 38.55C27.177 43.29 26.064 41.167.06 39.662 25.877 37.347 27.17 34.953 28.997.03c1.68 35.049 3.144 37.159 28.942 39.626z" data-color="1"></path>
        <path fill="#282119" d="M7.461 39.542c3.1.291 5.743.67 7.994 1.238 3.883.98 6.67 2.54 8.666 5.24 1.975 2.673 3.117 6.388 3.889 11.552.402 2.691.707 5.801.971 9.396.254-3.624.553-6.757.954-9.468.766-5.182 1.913-8.91 3.898-11.585 2.006-2.704 4.808-4.257 8.702-5.22 2.254-.556 4.896-.921 7.992-1.195-3.07-.403-5.695-.876-7.937-1.522-3.882-1.119-6.68-2.773-8.692-5.533-1.993-2.737-3.16-6.489-3.94-11.687-.413-2.742-.721-5.91-.982-9.574-.27 3.647-.584 6.805-.998 9.543-.786 5.203-1.945 8.973-3.926 11.726-1.999 2.78-4.782 4.453-8.655 5.575-2.24.65-4.863 1.12-7.936 1.514m19.232-19.009c.776-5.135 1.198-11.8 1.654-20.536l1.299.002c.42 8.768.826 15.439 1.597 20.566.771 5.132 1.899 8.633 3.706 11.114 1.79 2.456 4.299 3.983 8 5.05 3.725 1.072 8.594 1.663 15.052 2.28v1.28c-6.508.338-11.423.746-15.154 1.669-3.707.916-6.2 2.346-7.97 4.731-1.79 2.413-2.9 5.88-3.656 11-.756 5.115-1.149 11.788-1.57 20.554l-1.297.003c-.457-8.737-.868-15.385-1.63-20.482-.763-5.104-1.867-8.56-3.649-10.972-1.76-2.383-4.241-3.819-7.938-4.752-3.72-.938-8.605-1.352-15.115-1.728l-.02-1.297c6.46-.58 11.322-1.16 15.033-2.235 3.688-1.07 6.183-2.611 7.962-5.086 1.798-2.5 2.919-6.021 3.696-11.161" clip-rule="evenodd" fill-rule="evenodd" data-color="2"></path>
    </g>
</svg>