<svg preserveAspectRatio="xMidYMid meet" data-bbox="2 2 588.055 521.71" xmlns="http://www.w3.org/2000/svg" viewBox="0 0 592 525" height="525" width="592" data-type="ugc" role="presentation" aria-hidden="true" aria-label="">
    <g>
        <path fill="#AFA1FF" d="M588.81 513.38c1.6 2.1 1.66 5.01.17 7.19 0 0-86.33-41.9-225.66-120.51l15.96-8.79 7.87-4.33c4.17-1.71 7.51-4.21 7.51-8.63 0-1.75-.52-3.8-1.71-6.22-1.11-2.36-2.2-4.72-3.3-7.1-4.25-9.14-8.51-18.41-12.69-27.61 9.71 5.33 19.46 10.87 29.19 16.65 21.95 13.03 43.78 27.25 64.97 42.71 2.11 1.54 4.21 3.09 6.31 4.66-1.5 8.01-2.52 17.3-2.53 24.69 0 2.58 5.17 2.6 5.18 0h.01s1.29 5.18 6.48 1.3c-.01 1.47 1.66 1.69 3.1 1.6 1.19-.06 2.15-.99 2.3-2.17.32-2.63.97-7.34 1.71-11.79 34.78 28.64 66.96 61.34 95.12 98.35z"></path>
        <path fill="#7A4A21" d="M486.57 427.38c-5.19 3.87-6.48-1.3-6.48-1.3h-.01c-.01 2.6-5.18 2.58-5.18 0 .01-7.39 1.03-16.68 2.53-24.69 1.09-5.76 2.43-10.85 3.84-14.13.47-1.11.96-2 1.44-2.65 11.02-14.67 39.28-51.12 83.78-63.45-1.97-6.2-10.51-23.46-46.84-65.38-15.38-17.75-30.96-34.35-40.65-44.5.57-1.11 1.12-2.22 1.65-3.35l-1.09 2.79 4.97 6.21 18.51-12.33c9.94 10.57 22.77 24.54 35.31 39.11 49.19 57.14 53.11 75.03 50.01 85.85-1.74 6.11-6.46 10.51-12.95 12.06-47.7 11.4-75.86 54.67-79.39 62.87-.7 1.45-1.56 5.86-2.33 10.54-.75 4.45-1.39 9.15-1.71 11.79-.15 1.18-1.11 2.11-2.3 2.17-1.44.09-3.12-.14-3.1-1.6z"></path>
        <path fill="#AFA1FF" d="M588.98 520.57s-8.45 3.14-27.97 3.14c-36.69 0-112.49-11.08-244.93-74.8l-.07-.04c-1.8-.98-6.51-4.51-9.61-19.05-4-18.72-15.54-15.56-16.84-12.98-1.29 2.6 0 9.08 2.58 11.67 2.6 2.58 0 2.58 0 2.58s-11.7-4.55-15.95-28.79c-6.87-39.15-24.17-50.31-28.06-41.23-2.48 5.76 6.46 17.61 2.57 19.44-3.18 1.5-13.31-15.11-22.22-31.79l.79-.42 9.05-5.79 12.01-7.65c29.98 17.69 58.46 34.19 85.24 49.46-.47.21-.94.42-1.4.65-6.28 2.93-10.97 6.48-10.97 13.46 0 2.91.81 6.4 2.65 10.68 2.58 5.18 8.07 6.99 10.67 5.73l10.53-5.8 16.27-8.97c139.33 78.61 225.66 120.51 225.66 120.51z"></path>
        <path fill="#47270B" d="m488.26 188.36 14.9 16.15-.12.09a1457 1457 0 0 0-14.99-15.69z"></path>
        <path fill="#47270B" d="m503.04 204.59-18.51 12.33-4.97-6.21 1.09-2.79c2.36-5.03 4.38-10.22 6.05-15.56.01-.05.02-.09.04-.12l1.3-3.33c3.15 3.24 8.45 8.73 14.99 15.69z"></path>
        <path fill="#7A4A21" d="M428.54 54.3c38.14 18.12 63.48 57.48 63.44 103.48-.01 11.87-1.85 23.46-5.24 34.45a1 1 0 0 1-.04.12l-6.05 15.56c-.53 1.13-1.08 2.25-1.65 3.35-9.14 17.98-22.65 33.51-39.07 44.87-20.53-19.78-48.91-30.8-71.72-39.15-21.62-7.91-46.25-14.44-52.7-13.97-3.83.27-7.28 2.42-9.23 5.74-3.27 5.58-2.62 11.91 7.7 38.43 1.83 4.67 3.91 9.89 6.28 15.64h-.01c-29.62-15.29-51.26-42.62-57.29-76.57a112.3 112.3 0 0 1-1.66-22.38c.68-25.76 10.52-50.78 26.24-71.28 4.77-6.22 10.1-12.03 15.87-17.3 15.35-14.06 33.89-24.4 53.91-29.01 7.58-1.75 15.38-2.67 23.29-2.67 17.35.01 33.55 3.84 47.93 10.68zm34.05 78.89c5.27-24.62-60.21-26.9-78.01-30.28-17.8-3.39-32.7-3.58-34.76 7.24-1.81 9.55 11.89 16.11 29.68 19.5 17.8 3.38 80.11 17.55 83.09 3.54"></path>
        <path fill="#47270B" d="m480.66 207.92 6.05-15.56c-1.66 5.34-3.69 10.53-6.05 15.56"></path>
        <path fill="#AEF9F2" d="M482.71 384.61c-.48.65-.97 1.54-1.44 2.65-6.62 5.24-10.15 9.48-10.15 9.48-21.19-15.46-43.02-29.68-64.97-42.71 0 0-9.12-17.39-8.37-21.95.73-4.57 8.13-4 19.33 13.87 11.19 17.87 13.79 4.92 3.44-10.66-10.36-15.56-18.13-27.22-12.94-29.82 5.19-2.58 42.71 64.84 51.79 68.74 9.07 3.9-2.58-11.51.01-18.72 2.6-7.2 23.3 29.11 23.3 29.11z"></path>
        <path fill="#945926" d="M481.27 387.25c-1.4 3.28-2.74 8.37-3.84 14.13-2.1-1.56-4.2-3.12-6.31-4.66 0 0 3.53-4.24 10.15-9.48z"></path>
        <path fill="#E0D5BE" d="M384.58 102.91c17.8 3.38 83.27 5.66 78.01 30.28-2.98 14.01-65.29-.16-83.09-3.54-17.8-3.39-31.5-9.95-29.68-19.5 2.06-10.82 16.97-10.63 34.76-7.24m56.94 23.64c1.09-6.56-8.78-8.21-20.98-10.25-12.18-2.04-22.07-3.69-23.08 2.32-.82 4.92 8.88 7.66 21.08 9.7 12.18 2.04 22.24 2.6 22.98-1.78z"></path>
        <path fill="#AEF9F2" d="M441.57 300.93c7.27-10.36 15.38-1.33 14.74 5.34-.63 6.67-5.87 21.52-5.01 33.07.29 3.83-16.99-28.06-9.74-38.41z"></path>
        <path fill="#282119" d="M420.55 116.3c12.2 2.04 22.07 3.69 20.98 10.25-.73 4.37-10.79 3.81-22.98 1.78-12.2-2.04-21.9-4.78-21.08-9.7 1.01-6.01 10.89-4.36 23.08-2.32z"></path>
        <path fill="#7A4A21" d="M330.37 228.05s-.06-.01-.09-.02c.58 1.63 1.23 3.38 1.93 5.24.04.07.06.15.09.22 3.92 10.37 9.64 24.27 16.47 40.23 3.28 7.64 6.81 15.76 10.52 24.19l-21.8 5.14c-6.76-15.38-12.52-28.84-17.21-40.23-2.37-5.75-4.46-10.97-6.28-15.64-10.32-26.52-10.97-32.85-7.7-38.43 1.95-3.32 5.4-5.46 9.23-5.74 6.45-.47 31.07 6.06 52.7 13.97 22.82 8.35 51.19 19.36 71.72 39.15-6.53 4.53-13.54 8.4-20.9 11.49-26.44-20.28-66.89-33.87-88.67-39.58z"></path>
        <path fill="#7A4A21" d="M391.01 8.63c11.66 3.9 37.53 45.67 37.53 45.67-14.38-6.84-30.58-10.67-47.93-10.68-7.91 0-15.71.92-23.29 2.67-3.83-10.28-18.18-14.37-15.19-18.17 2.99-3.81 29.39 9 26.81 5.12-2.57-3.87-19.42-24.64-20.32-27.32s0-3.9 0-3.9c26.32 6.4 46.24 29.96 46.24 29.96s2.6 2.6-3.87-8.94c-4.77-8.5-11.65-18.29.01-14.39z"></path>
        <path fill="#653116" d="M392.96 372.08c1.19 2.42 1.71 4.47 1.71 6.22 0 4.42-3.34 6.92-7.51 8.63l-7.87 4.33c-5.44-18.42 10.12-26.18 10.12-26.18l.24-.11h.01c1.11 2.38 2.2 4.74 3.3 7.1z"></path>
        <path fill="#E0D5BE" d="M335.58 384.31c.99-.45 2.02-.87 3.08-1.3l28.48-6.89c1.45-.35 2.24-1.95 1.6-3.3-5.38-11.72-14.44-31.81-23.44-52.04-2.65-5.96-5.29-11.94-7.82-17.71l21.8-5.14c5.56 12.63 11.55 25.97 17.67 39.45h.01c4.19 9.2 8.45 18.47 12.69 27.61h-.01l-.24.11s-15.56 7.76-10.12 26.18l-15.96 8.79-16.27 8.97-12.88-24.07c.46-.22.93-.43 1.4-.65z"></path>
        <path fill="#7A4A21" d="m349.62 273.36-.84.35h-.01c-6.83-15.95-12.54-29.84-16.47-40.22a1 1 0 0 0-.09-.22c-.46-1.42-1.14-3.3-1.84-5.22 21.77 5.71 62.22 19.3 88.67 39.58-13.18 5.54-27.53 8.62-42.51 8.61-9.25-.01-18.26-1.01-26.9-2.88z"></path>
        <path fill="#AFA1FF" d="M310.36 303.98c11.48 5.25 23.15 10.85 34.95 16.79 8.99 20.23 18.06 40.31 23.44 52.04.63 1.35-.15 2.96-1.6 3.3L338.67 383c-1.06.43-2.09.86-3.08 1.3a6524 6524 0 0 1-85.24-49.46l15.55-9.94 6.56-4.19a11.02 11.02 0 0 0 4.74-5.45c.43-1.09.94-2.37.94-4.32 0-2.67-.94-6.61-4.32-13.12-1.84-3.56-4.4-7.89-7.92-13.2 14.32 5.89 29.21 12.32 44.46 19.33z"></path>
        <path fill="#653116" d="m334.18 384.95 12.88 24.07-10.53 5.8c-2.6 1.27-8.09-.55-10.67-5.73-1.84-4.28-2.65-7.77-2.65-10.68 0-6.98 4.68-10.53 10.97-13.46"></path>
        <path fill="#AEF9F2" d="m316.01 448.87.07.04c.41.21.65.3.67.36 3.91 11.9-14.27 11.65-14.27 11.65-4.92.3-9.76-1.53-13.19-5.07-7.02-7.24-13.14-19.01-13.14-19.01-12.06-21.49-59.17-31.72-70.41-35.2-11.23-3.47-27.63-5.63-26.34-13.4 1.3-7.79 21.37-3.39 21.37-3.39.63-3.4-4.51-9.56-9.69-9.56-24.22-.02-11.26-14.92-33.69-14.3-14.79.41-11.65-11.67-6.47-12.97 5.19-1.29 5.19-10.36-4-10.84-20.84-1.09-21.91-6.02-32.8-11s-15.02-4.12-20.19-9.3-3.89-10.38 1.3-9.08c5.18 1.3 24.63-3.86 10.37-6.47s-29.81-12.99-38.99-25.35-25.78-21.36-25.78-21.36c-18.99-9.76 12.99-18.24 25.3 0 5.37 7.95 15.7 6.76 13.86.02-5.25-19.35-8.66-20.01-24.17-21.26-9.96-.81-13.62-3.3-17.16-8.81-5.32-8.28-7.77-18.08-7.36-27.92.01-.25.02-.51.04-.78.5-10.49 25.5-10.49 27.11 6.92 1.74 18.64 17.41 22.05 25.24 25.99s3.85-14.31 6.45-15.61c2.58-1.29 6.47.01 18.8 13.64 2.25 2.48 4.35 4.99 6.28 7.38 8.68 10.74 14.17 19.28 16.02 13.76.77-2.3.16-6.01-.87-10-1.99-7.75-5.51-16.56-3.49-18.26 3.06-2.6 4.72 0 10.23 9.13 1.19 1.97 3.19 5.23 5.64 9.15.86 1.39 1.78 2.87 2.74 4.41 8.81 14.06 20.89 32.92 23.63 35.67 3.89 3.89 12.98-12.95 16.85 3.9 1.16 5.02 3.37 11.46 5.92 18.05 5.18 13.4 11.74 27.39 13.46 31.01.19.39.71.43.98.1 1.96-2.43 6.23-5.09 11.12-.82 1.74 1.53 3.56 3.94 5.39 7.56 1.76 3.5 3.66 7.19 5.63 10.87 8.91 16.68 19.04 33.3 22.22 31.79 3.89-1.83-5.05-13.67-2.57-19.44 3.89-9.08 21.19 2.09 28.06 41.23 4.25 24.24 15.95 28.79 15.95 28.79s2.6 0 0-2.58c-2.58-2.6-3.87-9.08-2.58-11.67 1.3-2.58 12.84-5.74 16.84 12.98 3.1 14.54 7.81 18.07 9.61 19.05z"></path>
        <path fill="#AEF9F2" d="M310.36 303.96c-15.25-7-30.14-13.44-44.46-19.33-5.34-8.02-12.88-18.28-23.45-31.51-7.03-8.82-13.55-16.9-19.5-24.23h.01l-.01-.01c-3.6-4.46-6.99-8.63-10.15-12.52.78-.73 3.84-4.32-.16-13.46-4.55-10.37 9.71-12.94 14.89.01 5.17 12.97 22.8 51.87 32.35 51.88 9.56 0-8.72-23.24-3.06-25.87 5.68-2.65 11.61-.57 17.05 19.14s14.52 8.05 22.28 22.32c7.4 13.59 13.62 31.89 14.2 33.58z"></path>
        <path fill="#7A4A21" d="M16.37 64.05C9.9 64.04 11.29 59 11.29 59l-.02-.15s-.05.01-.07.01c-1.29 0-2.58-1.3-1.29-3.89 2.6-5.19 24.64-11.65 51.57-16.9 109.65-17.96 236.16 34.4 241.35 36.59l.6.65c-5.78 5.27-11.1 11.08-15.87 17.3-19.59-7.73-126.61-47.46-220.02-33.19-1.79.27-3.56.68-5.3 1.19-3.71 1.08-10.28 3.13-14.69 5.23-6.43 3.07-7.84 4.71-10.42 2.11-2.6-2.6 2.6-7.77 2.6-7.77l-.17-.4c-7.04 3.01-16.39 6.87-17.97 6.87-2.6 0-6.48-1.3-5.19-2.6z"></path>
        <path fill="#653116" d="M278.14 310.96c0 1.95-.51 3.23-.94 4.32-.93 2.3-2.6 4.22-4.74 5.45l-6.56 4.19c-9.35-17.8 7.51-26.85 7.92-27.08 3.38 6.51 4.32 10.45 4.32 13.12"></path>
        <path fill="#E0D5BE" d="M227.4 269.59q-1.065-1.32-2.16-2.7c-6.99-8.74-13.46-16.79-19.36-24.07l5.09-4.15 11.97-9.77c5.95 7.33 12.47 15.41 19.5 24.23 10.57 13.23 18.11 23.49 23.45 31.51 3.53 5.32 6.09 9.64 7.92 13.2-.41.22-17.28 9.28-7.92 27.08l-15.55 9.94-12.01 7.65-.56-.88-12.02-19.39-.02-.04c.5-.32 1.02-.63 1.54-.93l.29-.12 26.88-11.96a2.652 2.652 0 0 0 1.14-3.92c-4.51-6.68-14.41-18.51-28.17-35.67z"></path>
        <path fill="#7A4A21" d="M212.8 216.37c3.15 3.89 6.55 8.06 10.15 12.52l-11.97 9.79-5.09 4.15c-4.06-5.02-7.84-9.68-11.31-13.96l-2.66-3.27c-19.28-23.75-30.93-38.08-37.42-48.45-5.8-9.24-10.42-19.44-4.99-31.35 5.76-12.64 23.77-9.51 30.55-8.33 9.24 1.61 21.42 4.91 36.23 9.8 18.89 6.23 37.05 13.4 45.02 16.62-.02.92-.04 1.85-.04 2.77 0 6.74.58 13.29 1.7 19.61l-1.37.24c-36.94-15.38-78.95-27.67-92.13-28.28.3.99.86 2.3 1.83 4.07.51.92 1.12 1.96 1.86 3.15 5.79 9.23 17.1 23.16 35.86 46.25 1.23 1.5 2.48 3.06 3.79 4.67z"></path>
        <path fill="#AFA1FF" d="M255.57 305.26a2.65 2.65 0 0 1-1.14 3.92l-26.88 11.96-.12-.27c-11.1-6.61-24.06-13.97-35.52-20.88-2.56-6.58-4.77-13.03-5.92-18.05-3.87-16.85-12.97-.01-16.85-3.9-2.74-2.74-14.83-21.61-23.63-35.67 20.02 5.84 48.47 14.78 81.91 27.21 13.76 17.16 23.66 28.99 28.17 35.67z"></path>
        <path fill="#653116" d="m238.33 342.5-9.05 5.79-.79.42c-1.96-3.68-3.86-7.36-5.63-10.87-1.83-3.63-3.65-6.04-5.39-7.55 1.64-3.04 4.51-5.74 8.26-8.1l.02.02 12.02 19.4.56.88z"></path>
        <path fill="#AFA1FF" d="m227.43 320.87.12.27-.29.12c-.52.3-1.04.61-1.54.93-3.75 2.36-6.62 5.05-8.26 8.09-4.88-4.27-9.15-1.61-11.12.82-.27.34-.79.29-.98-.1-1.73-3.63-8.28-17.61-13.46-31.01 11.46 6.91 24.42 14.27 35.52 20.88z"></path>
        <path fill="#AEF9F2" d="M225.24 266.89c.73.92 1.45 1.81 2.16 2.7-33.43-12.43-61.89-21.37-81.91-27.21-.97-1.54-1.89-3.02-2.74-4.41 0 0 3.08-9.6-10.74-28.49-5.05-6.91-8.45-12.12-10.42-16.07-2.06-4.09 3.63-7.6 6.4-3.95 10.48 13.87 33.62 42.61 46.38 44 16.84 1.84 20.21-4.6 20.21-4.6 3.48 4.28 7.25 8.94 11.31 13.96 5.9 7.28 12.37 15.33 19.36 24.07z"></path>
        <path fill="#E0D5BE" d="m222.96 228.89-.01.01v-.01z"></path>
        <path fill="#AFA1FF" d="M130.37 237.94c1.03 3.99 1.64 7.7.87 10-1.85 5.51-7.34-3.02-16.02-13.76 1.38.27 5.74 1.23 15.04 3.79l.11-.02z"></path>
        <path fill="#AEF9F2" d="M95.34 169.1c12.95 3.9 17.04 37.52 15.52 33.72-2.58-6.48-19.42-14.27-24.38-19.46-4.94-5.19-4.1-18.16 8.86-14.26"></path>
        <path stroke-linejoin="round" stroke-linecap="round" stroke-width="2.3" stroke="#47270B" d="M316.01 448.87c-.19-.09-.37-.19-.56-.27" fill="none"></path>
        <path stroke-linejoin="round" stroke-linecap="round" stroke-width="2.3" stroke="#47270B" d="M493.69 415.02c34.78 28.64 66.96 61.34 95.12 98.35 1.6 2.1 1.66 5.01.17 7.19 0 0-8.45 3.14-27.97 3.14-36.69 0-112.49-11.08-244.93-74.8" fill="none"></path>
        <path stroke-linejoin="round" stroke-linecap="round" stroke-width="2.3" stroke="#47270B" d="M376.96 337.36c9.71 5.33 19.46 10.87 29.19 16.65 21.95 13.03 43.78 27.25 64.97 42.71 2.11 1.54 4.21 3.09 6.31 4.66.02.02.06.04.09.06" fill="none"></path>
        <path stroke-linejoin="round" stroke-linecap="round" stroke-width="2.3" stroke="#47270B" d="M310.36 303.98c11.48 5.25 23.15 10.85 34.95 16.79.02.01.06.02.09.04" fill="none"></path>
        <path stroke-linejoin="round" stroke-linecap="round" stroke-width="2.3" stroke="#47270B" d="M265.89 284.64c14.32 5.89 29.21 12.32 44.46 19.33" fill="none"></path>
        <path stroke-linejoin="round" stroke-linecap="round" stroke-width="2.3" stroke="#47270B" d="M145.5 242.37c20.02 5.84 48.47 14.78 81.91 27.21.02.01.06.02.09.04" fill="none"></path>
        <path stroke-linejoin="round" stroke-linecap="round" stroke-width="2.3" stroke="#47270B" d="M114.71 234.08s.16.02.51.1c1.38.27 5.74 1.23 15.04 3.79" fill="none"></path>
        <path stroke-linejoin="round" stroke-linecap="round" stroke-width="2.3" stroke="#47270B" d="M2 246.51s3.15 9.29 20.48 13.7c17.31 4.42 20.33 18.42 31.72 26.17 11.4 7.75 18.83 13.5 18.83 13.5" fill="none"></path>
        <path stroke-linejoin="round" stroke-linecap="round" stroke-width="2.3" stroke="#47270B" d="M34.54 308.68s8.25 19.42 40.75 24.53 36.7 10.04 47.93 23.62c11.24 13.6 28.5 14.64 39.12 23.56" fill="none"></path>
        <path stroke-linejoin="round" stroke-linecap="round" stroke-width="2.3" stroke="#47270B" d="M217.47 330.28c-4.88-4.27-9.15-1.61-11.12.82-.27.34-.79.29-.98-.1-1.73-3.63-8.28-17.61-13.46-31.01-2.56-6.58-4.77-13.03-5.92-18.05-3.87-16.85-12.97-.01-16.85-3.9-2.74-2.74-14.83-21.61-23.63-35.67-.97-1.54-1.89-3.02-2.74-4.41-2.45-3.92-4.45-7.18-5.64-9.15-5.51-9.13-7.18-11.72-10.23-9.13-2.02 1.7 1.5 10.51 3.49 18.26 1.03 3.99 1.64 7.7.87 10-1.85 5.51-7.34-3.02-16.02-13.76-1.94-2.38-4.04-4.89-6.28-7.38-12.33-13.62-16.22-14.93-18.8-13.64-2.6 1.3 1.38 19.56-6.45 15.61s-23.5-7.35-25.24-25.99c-1.61-17.41-26.62-17.41-27.11-6.92-.01.27-.02.53-.04.78-.41 9.84 2.05 19.64 7.36 27.92 3.54 5.5 7.2 8 17.16 8.81 15.51 1.25 18.92 1.91 24.17 21.26 1.84 6.73-8.5 7.92-13.86-.02-12.31-18.24-44.29-9.76-25.3 0 0 0 16.61 9 25.78 21.36 9.18 12.36 24.73 22.74 38.99 25.35s-5.19 7.77-10.37 6.47c-5.19-1.3-6.5 3.89-1.3 9.08s9.3 4.32 20.19 9.3 11.96 9.91 32.8 11c9.19.48 9.19 9.55 4 10.84-5.18 1.29-8.32 13.38 6.47 12.97 22.43-.62 9.48 14.27 33.69 14.3 5.18 0 10.32 6.16 9.69 9.56 0 0-20.07-4.4-21.37 3.39-1.29 7.77 15.11 9.94 26.34 13.4 11.24 3.48 58.35 13.71 70.41 35.2 0 0 6.12 11.77 13.14 19.01 3.43 3.54 8.27 5.37 13.19 5.07 0 0 18.18.25 14.27-11.65-.02-.06-.26-.15-.67-.36l-.07-.04c-1.8-.98-6.51-4.51-9.61-19.05-4-18.72-15.54-15.56-16.84-12.98-1.29 2.6 0 9.08 2.58 11.67 2.6 2.58 0 2.58 0 2.58s-11.7-4.55-15.95-28.79c-6.87-39.15-24.17-50.31-28.06-41.23-2.48 5.76 6.46 17.61 2.57 19.44-3.18 1.5-13.31-15.11-22.22-31.79-1.96-3.68-3.86-7.36-5.63-10.87-1.83-3.63-3.65-6.04-5.39-7.55" fill="none"></path>
        <path stroke-linejoin="round" stroke-linecap="round" stroke-width="2.3" stroke="#47270B" d="M318.02 476.03s2.27 8.36 22.52 8.31c20.24-.04 37.5 9.8 37.5 9.8" fill="none"></path>
        <path stroke-linejoin="round" stroke-linecap="round" stroke-width="2.3" stroke="#47270B" d="M194.57 228.86s-3.37 6.43-20.21 4.6c-12.76-1.39-35.89-30.13-46.38-44-2.77-3.65-8.46-.14-6.4 3.95 1.97 3.95 5.37 9.17 10.42 16.07 13.82 18.89 10.74 28.49 10.74 28.49" fill="none"></path>
        <path stroke-linejoin="round" stroke-linecap="round" stroke-width="2.3" stroke="#47270B" d="M212.63 216.52s.06-.05.17-.15c.78-.73 3.84-4.32-.16-13.46-4.55-10.37 9.71-12.94 14.89.01 5.17 12.97 22.8 51.87 32.35 51.88 9.56 0-8.72-23.24-3.06-25.87 5.68-2.65 11.61-.57 17.05 19.14s14.52 8.05 22.28 22.32c7.4 13.59 13.62 31.89 14.2 33.58a.4.4 0 0 0 .04.12" fill="none"></path>
        <path stroke-linejoin="round" stroke-linecap="round" stroke-width="2.3" stroke="#47270B" d="M406.15 354.02s-9.12-17.39-8.37-21.95c.73-4.57 8.13-4 19.33 13.87 11.19 17.87 13.79 4.92 3.44-10.66-10.36-15.56-18.13-27.22-12.94-29.82 5.19-2.58 42.71 64.84 51.79 68.74 9.07 3.9-2.58-11.51.01-18.72 2.6-7.2 23.3 29.11 23.3 29.11" fill="none"></path>
        <path stroke-linejoin="round" stroke-linecap="round" stroke-width="2.3" stroke="#47270B" d="M471.12 396.73s3.53-4.24 10.15-9.48" fill="none"></path>
        <path stroke-linejoin="round" stroke-linecap="round" stroke-width="2.3" stroke="#47270B" d="M227.43 320.87c-11.1-6.61-24.06-13.97-35.52-20.88" fill="none"></path>
        <path stroke-linejoin="round" stroke-linecap="round" stroke-width="2.3" stroke="#47270B" d="M335.85 384.47c-.09-.05-.19-.1-.27-.16a6524 6524 0 0 1-85.24-49.46" fill="none"></path>
        <path stroke-linejoin="round" stroke-linecap="round" stroke-width="2.3" stroke="#47270B" d="M588.98 520.57s-86.33-41.9-225.66-120.51" fill="none"></path>
        <path stroke-linejoin="round" stroke-linecap="round" stroke-width="2.3" stroke="#47270B" d="M110.87 202.82c1.52 3.8-2.57-29.82-15.52-33.72s-13.8 9.07-8.86 14.26c4.96 5.19 21.8 12.98 24.38 19.46" fill="none"></path>
        <path stroke-linejoin="round" stroke-linecap="round" stroke-width="2.3" stroke="#47270B" d="M451.31 339.35c.29 3.83-16.99-28.06-9.74-38.41 7.27-10.36 15.38-1.33 14.74 5.34-.63 6.67-5.87 21.52-5.01 33.07z" fill="none"></path>
        <path stroke-linejoin="round" stroke-linecap="round" stroke-width="2.3" stroke="#47270B" d="M480.07 426.08h.02" fill="none"></path>
        <path stroke-linejoin="round" stroke-linecap="round" stroke-width="2.3" stroke="#47270B" d="m389.41 365.08.23-.11" fill="none"></path>
        <path stroke-linejoin="round" stroke-linecap="round" stroke-width="2.3" stroke="#47270B" d="m348.77 273.71.85-.35.01-.01" fill="none"></path>
        <path stroke-linejoin="round" stroke-linecap="round" stroke-width="2.3" stroke="#47270B" d="m302.82 74.67.59.63" fill="none"></path>
        <path stroke-linejoin="round" stroke-linecap="round" stroke-width="2.3" stroke="#47270B" d="m237.78 341.62.55.88" fill="none"></path>
        <path stroke-linejoin="round" stroke-linecap="round" stroke-width="2.3" stroke="#47270B" d="m225.73 322.2.02.02" fill="none"></path>
        <path stroke-linejoin="round" stroke-linecap="round" stroke-width="2.3" stroke="#47270B" d="m222.95 228.9.01-.01" fill="none"></path>
        <path stroke-linejoin="round" stroke-linecap="round" stroke-width="2.3" stroke="#47270B" d="M39.53 59.77v.01l.17.4" fill="none"></path>
        <path stroke-linejoin="round" stroke-linecap="round" stroke-width="2.3" stroke="#47270B" d="M11.26 58.83v.02l.03.15" fill="none"></path>
        <path stroke-linejoin="round" stroke-linecap="round" stroke-width="2.3" stroke="#47270B" d="M462.59 133.19c-2.98 14.01-65.29-.16-83.09-3.54-17.8-3.39-31.5-9.95-29.68-19.5 2.06-10.82 16.97-10.63 34.76-7.24 17.8 3.38 83.27 5.66 78.01 30.28" fill="none"></path>
        <path stroke-linejoin="round" stroke-linecap="round" stroke-width="2.3" stroke="#47270B" d="M576.09 319.87s-4.93-.02-9.6 1.28" fill="none"></path>
        <path stroke-linejoin="round" stroke-linecap="round" stroke-width="2.3" stroke="#47270B" d="M486.71 192.36c-1.66 5.34-3.69 10.53-6.05 15.56-.53 1.13-1.08 2.25-1.65 3.35-9.14 17.98-22.65 33.51-39.07 44.87-6.53 4.53-13.54 8.4-20.9 11.49-13.18 5.54-27.53 8.62-42.51 8.61-9.25-.01-18.26-1.01-26.9-2.88" fill="none"></path>
        <path stroke-linejoin="round" stroke-linecap="round" stroke-width="2.3" stroke="#47270B" d="M320.26 262.83c-29.62-15.29-51.26-42.62-57.29-76.57a112.3 112.3 0 0 1-1.66-22.38c.68-25.76 10.52-50.78 26.24-71.28 4.77-6.22 10.1-12.03 15.87-17.3 15.35-14.06 33.89-24.4 53.91-29.01 7.58-1.75 15.38-2.67 23.29-2.67 17.35.01 33.55 3.84 47.93 10.68 38.14 18.12 63.48 57.48 63.44 103.48-.01 11.87-1.85 23.46-5.24 34.45" fill="none"></path>
        <path stroke-linejoin="round" stroke-linecap="round" stroke-width="2.3" stroke="#47270B" d="M302.82 74.66c-5.19-2.19-131.7-54.55-241.35-36.59C34.54 43.32 12.5 49.78 9.9 54.97c-1.29 2.58 0 3.89 1.29 3.89.02 0 .05 0 .07-.01 1.8-.27 19.46-9.07 24.57-10.33" fill="none"></path>
        <path stroke-linejoin="round" stroke-linecap="round" stroke-width="2.3" stroke="#47270B" d="M489.18 406.64c0 1.3-2.61 18.15-2.61 20.74-.01 1.47 1.66 1.69 3.1 1.6 1.19-.06 2.15-.99 2.3-2.17.32-2.63.97-7.34 1.71-11.79.77-4.68 1.64-9.09 2.33-10.54 3.53-8.2 31.68-51.47 79.39-62.87 6.5-1.55 11.22-5.95 12.95-12.06 3.09-10.82-.82-28.7-50.01-85.85-12.54-14.57-25.37-28.54-35.31-39.11a1457 1457 0 0 0-14.99-15.69c-.09-.09-.17-.19-.26-.27" fill="none"></path>
        <path stroke-linejoin="round" stroke-linecap="round" stroke-width="2.3" stroke="#47270B" d="M482.69 405.34c0 1.3-2.61 18.15-2.62 20.74s-5.18 2.58-5.18 0c.01-7.39 1.03-16.68 2.53-24.69 1.09-5.76 2.43-10.85 3.84-14.13.47-1.11.96-2 1.44-2.65 11.02-14.67 39.28-51.12 83.78-63.45-1.97-6.2-10.51-23.46-46.84-65.38-15.38-17.75-30.96-34.35-40.65-44.5" fill="none"></path>
        <path stroke-linejoin="round" stroke-linecap="round" stroke-width="2.3" stroke="#47270B" d="M332.29 233.49c3.92 10.37 9.64 24.27 16.47 40.23 3.28 7.64 6.81 15.76 10.52 24.19 5.56 12.63 11.55 25.97 17.67 39.45h.01c4.19 9.2 8.45 18.47 12.69 27.61 1.11 2.38 2.2 4.74 3.3 7.1 1.19 2.42 1.71 4.47 1.71 6.22 0 4.42-3.34 6.92-7.51 8.63l-7.87 4.33-15.96 8.79-16.27 8.97-10.53 5.8c-2.6 1.27-8.09-.55-10.67-5.73-1.84-4.28-2.65-7.77-2.65-10.68 0-6.98 4.68-10.53 10.97-13.46.46-.22.93-.43 1.4-.65.99-.45 2.02-.87 3.08-1.3l28.48-6.89c1.45-.35 2.24-1.95 1.6-3.3-5.38-11.72-14.44-31.81-23.44-52.04-2.65-5.96-5.29-11.94-7.82-17.71-6.76-15.38-12.52-28.84-17.21-40.23-2.37-5.75-4.46-10.97-6.28-15.64-10.32-26.52-10.97-32.85-7.7-38.43 1.95-3.32 5.4-5.46 9.23-5.74 6.45-.47 31.07 6.06 52.7 13.97 22.82 8.35 51.19 19.36 71.72 39.15.04.02.07.06.11.1" fill="none"></path>
        <path stroke-linejoin="round" stroke-linecap="round" stroke-width="2.3" stroke="#47270B" d="M419.03 267.64c-26.44-20.28-66.89-33.87-88.67-39.58-.02-.01-.06-.01-.09-.02.58 1.63 1.23 3.38 1.93 5.24" fill="none"></path>
        <path stroke-linejoin="round" stroke-linecap="round" stroke-width="2.3" stroke="#47270B" d="M217.47 330.29c1.64-3.04 4.51-5.74 8.26-8.1.5-.32 1.02-.63 1.54-.93l.29-.12 26.88-11.96a2.652 2.652 0 0 0 1.14-3.92c-4.51-6.68-14.41-18.51-28.17-35.67q-1.065-1.32-2.16-2.7c-6.99-8.74-13.46-16.79-19.36-24.07-4.06-5.02-7.84-9.68-11.31-13.96l-2.66-3.27c-19.28-23.75-30.93-38.08-37.42-48.45-5.8-9.24-10.42-19.44-4.99-31.35 5.76-12.64 23.77-9.51 30.55-8.33 9.24 1.61 21.42 4.91 36.23 9.8 18.89 6.23 37.05 13.4 45.02 16.62" fill="none"></path>
        <path stroke-linejoin="round" stroke-linecap="round" stroke-width="2.3" stroke="#47270B" d="M222.95 228.89c-3.6-4.46-6.99-8.63-10.15-12.52-1.3-1.61-2.56-3.17-3.79-4.67-18.75-23.09-30.07-37.02-35.86-46.25-.75-1.19-1.35-2.24-1.86-3.15-.97-1.78-1.53-3.08-1.83-4.07 13.18.61 55.19 12.9 92.13 28.28" fill="none"></path>
        <path stroke-linejoin="round" stroke-linecap="round" stroke-width="2.3" stroke="#47270B" d="m229.28 348.29 9.05-5.79 12.01-7.65 15.55-9.94 6.56-4.19a11.02 11.02 0 0 0 4.74-5.45c.43-1.09.94-2.37.94-4.32 0-2.67-.94-6.61-4.32-13.12-1.84-3.56-4.4-7.89-7.92-13.2-5.34-8.02-12.88-18.28-23.45-31.51-7.03-8.82-13.55-16.9-19.5-24.23" fill="none"></path>
        <path stroke-linejoin="round" stroke-linecap="round" stroke-width="2.3" stroke="#47270B" d="M169.24 148.43s-2.37 8.27 2.05 13.86" fill="none"></path>
        <path stroke-linejoin="round" stroke-linecap="round" stroke-width="2.3" stroke="#47270B" d="M327.31 219.86s1.58 4.15 3.06 8.2c.7 1.91 1.38 3.8 1.84 5.22.04.07.06.15.09.22.07.22.14.43.2.62" fill="none"></path>
        <path stroke-linejoin="round" stroke-linecap="round" stroke-width="2.3" stroke="#47270B" d="M225.75 322.22v.01l12.03 19.39" fill="none"></path>
        <path stroke-linejoin="round" stroke-linecap="round" stroke-width="2.3" stroke="#47270B" d="m347.06 409.02-12.88-24.07" fill="none"></path>
        <path stroke-linejoin="round" stroke-linecap="round" stroke-width="2.3" stroke="#47270B" d="M273.83 297.84h-.01c-.41.22-17.28 9.28-7.92 27.08" fill="none"></path>
        <path stroke-linejoin="round" stroke-linecap="round" stroke-width="2.3" stroke="#47270B" d="M389.41 365.08s-15.56 7.76-10.12 26.18" fill="none"></path>
        <path stroke-linejoin="round" stroke-linecap="round" stroke-width="2.3" stroke="#47270B" d="m205.88 242.82 5.09-4.15 11.98-9.77v-.01h.01" fill="none"></path>
        <path stroke-linejoin="round" stroke-linecap="round" stroke-width="2.3" stroke="#47270B" d="m337.48 303.06 21.8-5.14" fill="none"></path>
        <path stroke-linejoin="round" stroke-linecap="round" stroke-width="2.3" stroke="#47270B" d="M157.16 148.42s-8.21 7.54-.01 21.28" fill="none"></path>
        <path stroke-linejoin="round" stroke-linecap="round" stroke-width="2.3" stroke="#47270B" d="M315.66 209.47s-7.79 5.18-3.9 14.26" fill="none"></path>
        <path stroke-linejoin="round" stroke-linecap="round" stroke-width="2.3" stroke="#47270B" d="m344.72 301.67 9.73 20.6" fill="none"></path>
        <path stroke-linejoin="round" stroke-linecap="round" stroke-width="2.3" stroke="#47270B" d="m352.5 300.38 8.43 18.02" fill="none"></path>
        <path stroke-linejoin="round" stroke-linecap="round" stroke-width="2.3" stroke="#47270B" d="m210.97 238.67 16.51 18.68" fill="none"></path>
        <path stroke-linejoin="round" stroke-linecap="round" stroke-width="2.3" stroke="#47270B" d="m217.46 233.49 16.5 18.68" fill="none"></path>
        <path stroke-linejoin="round" stroke-linecap="round" stroke-width="2.3" stroke="#47270B" d="M480.09 426.08s1.29 5.18 6.48 1.3" fill="none"></path>
        <path stroke-linejoin="round" stroke-linecap="round" stroke-width="2.3" stroke="#47270B" d="M47.54 56.3s-3.54 1.56-8.01 3.48c-7.04 3.01-16.39 6.87-17.97 6.87-2.6 0-6.48-1.3-5.19-2.6S41.01 52.4 41.01 52.4" fill="none"></path>
        <path stroke-linejoin="round" stroke-linecap="round" stroke-width="2.3" stroke="#47270B" d="M11.29 59s-1.39 5.04 5.08 5.05" fill="none"></path>
        <path stroke-linejoin="round" stroke-linecap="round" stroke-width="2.3" stroke="#47270B" d="M39.7 60.18s-5.19 5.18-2.6 7.77c2.58 2.6 3.99.96 10.42-2.11 4.41-2.1 10.98-4.15 14.69-5.23 1.74-.51 3.51-.92 5.3-1.19 93.41-14.27 200.43 25.46 220.02 33.19" fill="none"></path>
        <path stroke-linejoin="round" stroke-linecap="round" stroke-width="2.3" stroke="#47270B" d="M165.44 49.92s10.37-1.29 18.15 1.32" fill="none"></path>
        <path stroke-linejoin="round" stroke-linecap="round" stroke-width="2.3" stroke="#47270B" d="M269.31 169.79s.04 31.87 14.11 50.03" fill="none"></path>
        <path stroke-linejoin="round" stroke-linecap="round" stroke-width="2.3" stroke="#47270B" d="M428.54 54.3s-25.87-41.77-37.53-45.67-4.78 5.9-.01 14.39c6.47 11.54 3.87 8.94 3.87 8.94S374.95 8.4 348.63 2c0 0-.89 1.22 0 3.9s17.75 23.45 20.32 27.32c2.57 3.89-23.82-8.93-26.81-5.12-2.99 3.8 11.36 7.89 15.19 18.17" fill="none"></path>
        <path stroke-linejoin="round" stroke-linecap="round" stroke-width="2.3" stroke="#47270B" d="M441.52 126.55c-.73 4.37-10.79 3.81-22.98 1.78-12.2-2.04-21.9-4.78-21.08-9.7 1.01-6.01 10.89-4.36 23.08-2.32 12.2 2.04 22.07 3.69 20.98 10.25z" fill="none"></path>
        <path stroke-linejoin="round" stroke-linecap="round" stroke-width="2.3" stroke="#47270B" d="M461.53 168.38c1.84 13.86-48.74 51.32-127.78-19.85" fill="none"></path>
        <path fill="#47270B" d="m263.46 188.36-21.11-9.93 3.72-21.12 14.91 6.21z"></path>
    </g>
</svg>